<?xml version="1.0" encoding="utf-8"?>
<!-- Generator: Adobe Illustrator 23.0.1, SVG Export Plug-In . SVG Version: 6.00 Build 0)  -->
<svg version="1.1" id="Layer_1" xmlns="http://www.w3.org/2000/svg" xmlns:xlink="http://www.w3.org/1999/xlink" x="0px" y="0px"
	 viewBox="0 0 800 500" style="enable-background:new 0 0 800 500;" xml:space="preserve">
<style type="text/css">
	.st0{fill:#170D04;stroke:#170D04;stroke-miterlimit:10;}
</style>
<path class="st0" d="M505.1,288.4c-1-0.1-2-0.1-3-0.1c-10,0.2-19.9,1.6-29.6,3.9c-7,1.6-14.2,2-21.1,4.1
	c-11.3,3.3-23.2,4.6-34.2,9.2c-2.4-0.7-1.2-2.7-1.5-4.2c-1.6-6.8-6-12.1-9.8-17.7c0,0,0-0.1,0-0.1c-15.2-12.1-32.4-13.4-50.7-9.6
	c-9.7,2-19.2,4.9-28.9,7.1c-0.8,0.3-0.9-0.1-0.8-0.8c-0.4-1.3-0.6-2.6-1.1-3.8c-1.9-4.3,0.1-6.9,3.5-9.2c5.8-3.8,11.3-8.2,16.6-12.7
	c14-11.8,24.6-26.1,32.5-42.5c1.5-3.1,2.7-6.8,0.2-10c-2.6-3.3-6.4-3-10.1-2.4c-9.2,1.4-18.2,3.9-26.5,7.6
	c-13.6,6-26.7,13-39.2,21.2c-7,4.6-12.8,10.2-18.8,15.9c-1.4,1.4-2.7,2.9-3.5,4.8c-0.9,2.4,0.2,4,2.3,4.8c2,0.8,3.1-0.4,3.4-2.4
	c0.2-1.8,1.6-2.9,2.7-4.1c5.7-6.1,12.3-11.1,19.5-15.3c0.8-0.3,1.3-2.3,2.4-1.3c0,0,0-0.1,0.1-0.1c0.2-0.2,0.6-0.3,0.9-0.4
	c-0.2,0.4-0.3,0.7-0.5,1.1c0,0.1,0.1,0.1,0.1,0.1c0,0-0.1-0.1-0.1-0.1c0,0,0,0,0,0c-0.5,0.7-0.9,1.5-1.4,2.2
	c3.2,10.2,5.7,20.6,7.5,31.1c0.3,2,1,3.8-1.2,5.3c-11.1,7.7-21.2,16.8-32.5,24.2c-1.9,1.2-3.9,2.6-2.7,5.2c1.4,2.8,3.9,1.7,6.1,1
	c10.4-3.2,20.8-6.1,31.1-9.6c3.5-1.2,4.5-0.3,5.3,2.9c3.5,14.1,7.2,28.2,10.9,42.2c1.2,4.5,0,7.2-4.3,9.4
	c-11.5,5.8-22.8,11.8-33.3,19.3c-3.2,2.3-4.5,2-6.3-1.7c-8.2-18.1-14.2-36.8-18.8-56.1c-4.8-20-9.1-40.2-12-60.6
	c-0.6-0.6-0.8-1.2-0.5-2c-1.7-10-3.6-19.9-4.4-30c-0.6-0.6-0.7-1.3-0.5-2.1c-0.2-1.6-0.3-3.3-0.5-4.9c-0.6-0.6-0.7-1.3-0.4-2.1
	c-0.5-4-1-8-1.5-12c-0.5-0.6-0.7-1.3-0.5-2c-1.7-9.8-2.4-19.8-5-29.5c-0.8-2.9-1.6-6.2-5.3-6.4c-3.7-0.1-4.7,3.2-5.7,6
	c-0.6,1.7-1.2,3.5-1.5,5.3c-1.5,8.5-3,17-4.5,25.5c-0.2,0.7-0.3,1.4-0.5,2.1c-0.2,2.3-0.5,4.6-0.7,6.9c0.3,0.8,0.2,1.4-0.3,2.1
	c-0.2,3-0.5,6-0.7,8.9c0.4,0.8,0.2,1.4-0.3,2.1c-0.1,4,0.1,8-0.8,11.9c0.4,0.7,0.3,1.4-0.2,2.1c-0.2,6,0.1,12-0.8,17.9
	c0.4,1.1,0.4,2.1-0.2,3.1c-0.2,8.6,0.1,17.3-0.8,25.9c0.4,1,0.5,2.1-0.1,3.1c-0.2,10.3,0.1,20.6-0.9,30.9c0.4,1,0.5,2.1-0.1,3.1
	c-0.1,8.6,0.2,17.3-0.9,25.9c0.4,0.7,0.4,1.4-0.1,2.1c-0.1,5.3,0.2,10.7-0.8,15.9c0.4,0.7,0.3,1.4-0.2,2.1c0,7.2-0.8,14.3-2.9,21.4
	c-0.6,2.1,0.2,5.5-1.8,6.1c-2.7,0.9-3.2-2.7-4.5-4.4c-0.8-1-1.3-2.3-1.9-3.5c-6.7-13.9-11.5-28.6-15.9-43.4
	c-13.2-44.2-24.7-88.7-26.7-135c-1-23.4-3.3-46.8-3.4-70.3c-0.5-0.7-0.5-1.4-0.1-2.1c-0.2-2.1-0.5-4.3-0.6-6.4
	c-0.5-17.8-0.3-35.6,0-53.4c0-1.7,0-3.3-0.1-5c-0.1-1.6-0.6-3-2.4-3.2c-1.8-0.2-2.8,1.2-3.2,2.6c-0.5,1.5-0.4,3.3-0.5,4.9
	c-0.3,8.5-0.5,16.9-0.8,25.4c0.5,2,0.3,4.1-0.2,6.1c0,18,0,36,0,54c0.6,1.7,0.7,3.3,0.3,5.1c0.8,5.6,0.6,11.3,0.7,16.9
	c0.5,1,0.7,2,0.3,3.1c0.8,3.6,0.6,7.3,0.7,10.9c0.5,0.6,0.7,1.3,0.3,2.1c0.9,8.3,1.8,16.6,2.6,25c0.1,0.7,0.3,1.4,0.4,2
	c0.8,5.4,2,10.8,2.5,16.2c3.4,36.6,6.2,73.3,6.3,110.1c0,11.3,0.4,22.7-2.1,33.8c-1.6,7.3-3.9,8-9.7,3.3
	c-6.7-5.6-10.7-13.1-14.4-20.8c-11.3-23.2-19.7-47.5-26.1-72.5c-5.1-20.1-9.1-40.5-11-61.2c-0.1-0.7-0.2-1.4-0.4-2
	c-0.8-1.9-0.7-3.9-0.6-6c-0.1-0.7-0.2-1.4-0.3-2c-0.9-2.2-0.7-4.6-0.7-6.9c-0.5-0.6-0.7-1.3-0.3-2.1c-0.8-2.6-0.7-5.3-0.7-7.9
	c-0.6-0.6-0.6-1.3-0.3-2.1c-0.7-2.9-0.7-5.9-0.6-8.9c-0.5-0.6-0.6-1.3-0.2-2.1c-0.9-3.3-0.7-6.6-0.7-9.9c-0.5-1-0.8-2-0.3-3.1
	c-0.8-4.3-0.7-8.6-0.7-12.9c-0.5-1-0.7-2-0.2-3.1c-1.4-13.7-0.8-27.3,0.8-40.9c-0.3-1.1-0.1-2.1,0.5-3c0.2-2,0.3-4,0.5-6
	c-0.3-1.1-0.1-2.1,0.5-3c0.2-2,0.3-4,0.5-6c-0.3-1.4-0.1-2.8,0.6-4c0.2-2,0.3-4,0.5-6c-0.3-1.1-0.1-2.1,0.5-3c0.2-2.3,0.4-4.6,0.6-7
	c-0.3-1.1-0.1-2.1,0.5-3c0-2.7-0.1-5.3,0.7-8c-0.4-0.8-0.2-1.4,0.3-2.1c0.2-2.6,0.4-5.3,0.6-7.9c-0.4-1.1-0.1-2.1,0.4-3
	c0.2-3,0.4-6,0.6-9c-0.4-1.1-0.2-2.1,0.4-3.1c0-1.8,0-3.6,0-5.5c0.1-4.5,0.2-9,0.2-13.4c0-1.9-0.1-4.2-2.4-4.9
	c-2.8-0.9-3.6,1.7-5,3.2c-0.5,0.6-0.5,1.5-0.8,2.2C96.7,31.6,97,39.9,95.8,48c0.4,0.8,0.1,1.4-0.3,2c-0.2,2-0.4,4-0.6,6
	c0.3,0.8,0.2,1.4-0.3,2.1c-0.2,3-0.5,6-0.7,8.9c0.4,1.1,0.2,2.1-0.4,3c-0.2,3.7-0.4,7.3-0.6,11c0.3,1.7,0.1,3.4-0.5,5
	c-0.2,7-0.5,14-0.7,21c0.5,5,0.3,10-0.3,15.1c-0.1,3.7-0.3,7.3-0.4,11c0.3,1.4,0,2.8-0.6,4c0,2.7,0.2,5.4-0.7,8
	c-0.1,0.7-0.2,1.4-0.3,2c-0.5,5.7-0.9,11.3-1.4,17c0.3,1.4,0,2.8-0.6,4c-0.1,2.3-0.3,4.6-0.4,7c0.3,1.4,0.1,2.8-0.6,4
	c0.3,8.5-3.1,16.6-2,25.2c0.4,2.8,0.3,5.9-0.8,8.8c0.4,0.7,0.3,1.4-0.2,2.1c-0.1,3.7,0.2,7.3-0.7,10.9c0.4,0.7,0.3,1.4-0.2,2.1
	c-0.1,3.7,0.1,7.3-0.7,10.9c0.3,1.1,0.2,2.1-0.3,3c-0.1,4.3,0.2,8.7-0.8,13c0.4,0.7,0.3,1.4-0.2,2c-0.1,4.7,0.3,9.3-0.8,14
	c0.4,0.7,0.3,1.4-0.2,2.1c-0.1,5.3,0.2,10.7-0.8,15.9c0.4,1.1,0.3,2.1-0.2,3.1c-0.1,5.3,0.2,10.7-0.8,15.9c0.5,1.1,0.3,2.1-0.2,3.1
	c-0.1,6.7,0.2,13.3-0.8,19.9c0.4,1.4,0.3,2.7-0.3,4.1c-0.2,9.7,0.2,19.3-0.8,28.9c0.5,2.7,0.2,5.4-0.3,8c-0.1,13.3,0.2,26.6-0.7,40
	c0.1,17.1,0.1,34.2,0.2,51.3c0,1.7,0,3.3,0,5.9c0-0.1-0.1-0.1-0.1-0.2c0,0.1,0,0.2,0,0.3c0.1,1.1,0.2,2.2,0.2,3.3
	c0,1.5-0.4,3.3-0.1,4.7c0.3,1.1,0.9,1.9,1.9,2.4c1.3,0.6,1.3,0,2.7-0.6c0.1,0,0.1-0.1,0.2-0.1c0.6-1.3,0.8-2.9,0.8-4.5
	c0-0.3,0-0.6,0.1-0.9c0.1-3.5,0.2-7,0.7-10.4c0-2.2-0.1-4.4,0-6.5c0.4-12.5-0.4-25.1,0.8-37.6c-0.3-3-0.4-6.1,0.3-9.1
	c0.1-13.3-0.2-26.6,0.9-39.9c-0.6-1.7-0.3-3.4,0.2-5.1c0.1-8.7-0.2-17.3,0.8-25.9c-0.5-1.4-0.3-2.7,0.2-4.1c0-7-0.2-14,0.8-20.9
	c-0.4-1.1-0.3-2.1,0.2-3.1c0.1-6.3-0.3-12.7,0.8-18.9c-0.4-1.1-0.3-2.1,0.2-3.1c0-5-0.2-10,0.7-14.9c-0.5-1.1-0.2-2.1,0.3-3
	c0.1-4.7-0.2-9.3,0.8-14c-0.4-0.7-0.3-1.4,0.2-2.1c0.1-4.3-0.2-8.7,0.8-12.9c-0.4-0.7-0.2-1.4,0.2-2.1c0-4.3-0.2-8.7,0.8-12.9
	c-0.4-0.7-0.3-1.4,0.2-2.1c0.1-3.7-0.2-7.3,0.8-10.9c-0.4-0.7-0.2-1.4,0.2-2.1c-0.1-7.4,0.9-14.6,1.7-21.9c0.2-2.8,0.4-5.6,0.6-8.4
	c0.2,0,0.4,0,0.6,0c0.2,2.8,0.4,5.6,0.7,8.4c0.9,8.6,1.7,17.3,2.6,25.9c0.5,0.6,0.7,1.3,0.4,2.1c2.3,12.3,3.1,24.7,5.4,37
	c6.4,34.9,16.4,68.7,30.9,101.1c4.7,10.4,9.9,20.5,18.4,28.3c3.5,3.3,7.6,5.9,12.6,4.4c5.2-1.6,6.3-6.5,7.1-11.1
	c1.6-8.4,1.7-16.9,2-25.3c0.5-16.2-0.9-32.3-0.9-48.4c-0.5-1-0.7-2-0.2-3c-0.2-1.7-1.6-4.1,0.2-4.9c-1.3-0.2-0.7-1.9-0.8-3
	c-0.2-2.4-0.4-4.9-0.6-7.3c2,2.1,2.2,4.7,2.8,7.2c0.8,1.1,1.2,2.5,0,3c1.7,0.3,1.4,2.9,1.8,4.4c4.5,15.6,8.6,31.4,13.5,46.9
	c3.5,11.1,7.8,21.9,12.6,32.5c2.4,5.3,5,10.3,10.5,13c1-0.1,2.1-0.1,3.1-0.2c4-2.3,5.1-6.3,6.1-10.2c2.4-9.2,2.4-18.7,3.5-28.1
	c-0.4-0.7-0.3-1.4,0.2-2.1c0.2-6.3-0.1-12.6,0.9-18.9c-0.5-1.1-0.4-2.1,0.2-3.1c0.2-9.3-0.1-18.6,0.9-27.9c-0.5-1-0.4-2.1,0.1-3.1
	c0.2-10-0.2-20,0.9-29.9c-0.4-0.7-0.3-1.4,0.1-2.1c0.1-7.6-0.2-15.3,0.8-22.9c-0.4-0.7-0.4-1.4,0.2-2.1c0.3-5,0.5-9.9,0.8-14.9
	c-0.4-0.7-0.3-1.4,0.2-2.1c0.9-18.5,2.6-37,6.9-55.1c0.2-1.2,0.3-2.5,0.5-3.9c1.5,1.2,1.6,2.5,1.4,4c1.5,7.9,2.8,15.9,3.3,24
	c0.6,0.6,0.7,1.3,0.4,2.1c0.5,4.3,1.1,8.6,1.6,12.9c0.6,0.6,0.7,1.3,0.5,2.1c0.8,6,1.6,12,2.5,18c0.6,0.6,0.7,1.3,0.5,2
	c8.2,47,15.6,94.3,36.3,138c1.1,1.3,0.8,2-0.9,2c-4.7,3.3-9.3,6.7-14,9.9c-2.9,1.9-6.3,3.1-8.9,5.2c-9.3,7.8-19.4,14.4-28.1,22.8
	c-6.4,6.1-14.4,10.8-17.4,19.9c0,1.7,0,3.4,0,5.1c1.4,4.4,4.6,6.1,9,6.4c10.2,0.6,20.4,1.2,30.4-2.2c1.2-0.8,2.5-1.3,4-1.1
	c19.4-6.8,38.5-14.5,55.5-26.3c1.7-1.2,3-0.8,4.5,0.1c6.4,3.8,13.1,6.6,20.5,7.8c9.7,1.5,19.2,1.1,28-3.6c1.6-0.8,3.7-1.9,2.6-4.1
	c-1.1-2.4-3-1-4.7-0.2c-14.5,6.4-28.2,4.1-41.6-3.3c-0.5-0.2-1.3-0.2-1.2-1c0-0.3,0.7-0.5,1.1-0.7c18.2-11.6,37.4-21.7,54.1-35.5
	c0.7-1.3,1.7-2.1,3.1-2.7c8.6-6.9,16.7-14.2,23-23.4c5.4-8,11.1-16.1,11-26.2c0-4.5,1.8-5.8,5.6-7c19.8-6.2,40.1-10.7,60.5-14.5
	c7.9-1.5,15.8-2.2,23.7-3c1.8-0.2,3.5-0.6,3.4-2.8C508.3,288.8,506.6,288.5,505.1,288.4z M318.3,283.9c-5.4,1.7-10.7,4-16.8,3.8
	c5.2-4,10.4-8,16.2-12.5c0.6,2.6,1,4.4,1.4,6.1C319.3,282.2,319.5,283.5,318.3,283.9z M317.3,241.2c-0.9-3.9-0.9-8.4-5-11l-1.9-0.1
	c0-1.3,1.1-1.4,2-1.7c16.5-10.2,34-18,52.9-22.7c2.2-0.6,5.3-1.6,6.7,0c1.7,2-0.5,4.6-1.5,6.8c-11,21.7-27.8,37.9-48.3,51.5
	C320.5,256.4,319.1,248.8,317.3,241.2z M309.2,406.7c-22.3,12.4-44.9,23.8-70.7,26.9c-2,0.2-4,0-6,0c0,0,0,0,0-0.1c-2,0-4,0-6,0
	c-4.6-0.1-5.8-2.3-3-6.2c2.3-3,5.1-5.7,7.9-8.3c16.6-16.1,35.7-28.8,54.9-41.5c1.9-1.2,2.9-1.4,4.2,0.8c5.2,9.2,11.3,17.7,18.9,25
	C310.8,404.8,311.2,405.6,309.2,406.7z M405.6,329.6c-5.4,10.5-12.7,19.5-21.6,27.2c-19.8,17.3-42.3,30.6-64.8,43.9
	c-2.1,1.2-3.4,1.1-5.1-0.6c-7.6-7.4-13.4-16.1-18.8-25.1c-1.1-1.9-0.7-2.8,1-3.9c12.3-7.7,24.7-15.1,37.6-21.6
	c1.8-0.9,3-1.1,3.6,1.3c0.3,1.1,0.9,2.1,1.4,3.2c0.7,1.4,1.8,1.9,3.3,1.5c1.4-0.5,1.8-1.8,1.3-2.9c-3.6-7.7,2.4-9.4,7.3-11.9
	c18.2-9.4,37.4-16.4,56.3-24.3c0.4-0.2,1-0.1,1.7-0.2C409,321,407.7,325.4,405.6,329.6z M404.9,310.6c-21.7,8.7-43.8,16.7-64.8,28.7
	c-3-11.1-5.8-21.8-8.7-32.5c-1.4-5.1-2.6-10.3-3.9-15.5c-0.5-2.1-0.8-3.6,2.1-4.4c15.2-4.2,30.4-9.1,46.4-8.4
	c13.8,0.7,24.9,6.6,31.4,19.5c0.8,1.6,1.5,3.3,1.7,5.1C409.7,306.7,409,308.9,404.9,310.6z"/>
<path class="st0" d="M741.6,289.1c1.4,0.7,3.9-0.4,4,2.5c0.1,2.8-2,3-3.8,3.5c-2.4,0.6-4.8,1-7.1,1.5c-5-0.5-10.1-0.3-15.1,0
	c-2.9-0.9-5.9-1-9-0.8c-1-0.2-2-0.3-3-0.5c-3.5-0.1-6.5-4-9.8-2.3c-3,1.5-3.6,5.6-5.5,8.4c-2.4,3.3-3.9,8-7.1,9.7
	c-6.1,3.3-11.6,7.7-18.7,9.4c-9.2,2.3-18,6.6-27.9,5.4c-1.2-0.8-2.6-1.2-4-0.8c-5.4-1-7.6-4.9-8.9-9.7c-0.4-1.4-0.7-2.9-0.9-4.3
	c-0.2-1.5-0.4-3.3-2.2-3.2c-1.5,0-1.6,1.8-1.9,3.1c-2.1,7.3-4.1,14.6-6.3,21.8c-0.7,2.2-1.6,5.1-3.8,5.8c-3.1,1-6.4-0.8-6.2-5.4
	c0.4-8.1,0.7-16.2-0.3-24.3c0.5-1.1,0.3-2.1-0.2-3.1c-0.1-2.7-0.2-5.3-0.3-8c0.3-1.4,0.1-2.8-0.7-4c-0.1-1,0-2-0.2-2.9
	c-0.3-1.4-0.2-3.3-1.8-3.8c-1.7-0.5-2.5,1.3-3.5,2.2c-8.9,7.7-9.7,17.8-8,28.5c0,8,0,16.1-0.1,24.1c-0.2,3.3-0.3,6.6-0.5,10
	c-0.5,1-0.8,2-0.4,3c-1.2,7-2.4,14-3.5,21c-0.2,0.7-0.4,1.3-0.6,2c-2.5,9.1-4.2,18.5-9.7,26.6c-2.3,3.3-4.7,7.1-9.3,6.2
	c-4.1-0.8-5.4-4.6-6.1-8.4c-0.2-1.1-0.5-2.3-0.8-3.4c-0.1-0.4-0.2-0.8-0.3-1.1c-0.1-0.3-0.1-0.6-0.2-0.9c-0.1-0.7-0.2-1.3-0.2-2
	c-1-19.3,1.7-38,8.2-56.5c-7.9-0.4-11-5.5-12.9-11.7c-2-6.4-1.9-13.1-2.7-19.7c0.4-2,0.4-4.1-0.2-6.1c0-8.3,0.2-16.6-0.2-24.9
	c-0.2-3.3-2-6.5-1.2-10.1c0.4-1.9,0.6-3.7,2.9-4.1c2.4-0.4,3.8,0.9,4.5,3.1c1.5,4.6,1.6,9.5,1.8,14.3c0.5,13-0.5,26,1.1,38.9
	c0.5,4,1.2,7.9,3.5,11.3c1.8,2.6,4.7,3.8,6.1,0.2c4.4-10.7,10.2-21,10.4-33.1c0.1-5.2-0.2-10.3-1.5-15.3c-0.3-1.3-0.6-2.6-0.8-3.9
	c-0.3-2.6-0.2-5.4,3.1-5.8c2.9-0.4,3.8,2.1,4.2,4.5c0.9,4.4,1.8,8.7,2.7,13.1c0.2,0.8,0.4,1.5,0.5,2.3c0.9-0.5,1.5-1.2,1.7-2.3
	c2.8-2.6,4.7-6,8.1-7.9c4.8-2.7,9.1-1.4,10.7,3.8c1.2,3.9,1.8,8.1,2.6,12.1c-0.3,0.8-0.2,1.5,0.4,2.1c0.3,4.3,0.7,8.7,1,13
	c0,2.3,0,4.6,0,6.9c0.3,0,0.5,0.1,0.8,0.1c0.5-1.6,1-3.2,1.5-4.8c2.2-5.3,3.2-11.1,6.1-16.2c1.2-2,2.4-4.3,5.3-3.6
	c2.5,0.6,2.9,2.8,3.3,5.1c0.5,3.6,1.3,7.2,2.1,10.7c0.7,3,1,7.1,3.9,8.2c5.1,1.9,10.8,3,16,1c4.6-1.8,9.2-3.2,14-4.4
	c7-1.8,12.6-6.3,17.5-11.4c3-3.1,5.4-6.9,7.9-10.5c1.8-2.6,2.4-5.2,2-8.7c-0.8-6.5-0.9-13.3,0-19.8c0.8-5.7,7.6-13.8,14.7-14.4
	c6.3-0.5,8.6,2.5,6.1,8.4c-3.6,8.4-5.8,17.4-10,25.6c-0.5,0.6-1.9,1.2,0,1.8c5.9,1.7,11.7,3.6,18,3.1c1.3,0.6,2.7,0.7,4,0.2
	c2.6,0.7,5.3,0.6,7.9,0.1C735.5,289.5,738.5,289.5,741.6,289.1z M581.6,316.7c-2.5,7-6.9,13.1-9.4,19.8c-6.7,18-11.1,36.6-9.6,56
	c0.3,3.5,0.6,7,1.9,10.2c0.9,2.2,2,2.4,3.5,0.4c2.2-3,3.9-6.2,5-9.7C581,368.5,583.5,342.9,581.6,316.7z M706.7,257.1
	c-7.4,0.9-11.6,11-8.2,20.6C701.3,270.6,704,263.9,706.7,257.1z"/>
<path class="st0" d="M600.1,113c-2.2-3-4.7-0.8-6.7,1c-4.1,3.6-8.3,7-12.7,10.1c-13,9.4-26.1,18.7-38.8,28.4
	c-13.1,10-26.4,19.8-39,30.5c-29.1,24.8-58.4,49.2-84.5,77.2c-1.7,1.9-3.8,3.4-2.7,6.4c0.3,0.2,0.7,0.5,1,0.7
	c2.1,0.5,3.4-0.8,4.8-2.1c20.7-19.7,40.8-39.8,63.4-57.5c6.7-5.2,13.4-11.1,19.5-17.5c0.4-0.4,0.8-0.7,1.3-0.9
	c0.6-1.1,1.6-2,2.8-2.3c0.4-0.5,0.9-0.9,1.4-1.2c0.1-0.1,0.1-0.1,0.2-0.2c0.7-0.7,1.4-1.4,2.1-2.1c1.7-1.8,3.9-3,5.7-4.5
	c25.7-21.2,52.8-40.7,79.6-60.5C599.5,117.2,602.1,115.6,600.1,113z"/>
<path class="st0" d="M525.4,254.7c1.6,15.4,3,30.8,6.4,45.9c1.7,7.7,1.1,16,6.4,22.8c0.8,1.1,0.6,2.8-1.1,3.2
	c-1.7,0.4-3.2,0.3-4.7-1.4c-5.7-6.9-6.2-15.5-8-23.6c-5.4-25.1-6.2-50.8-11-76c-0.9-4.7-1.2-9.6-3.6-13.9c-0.9-1.7-1-3.9,0.9-4.8
	c2.2-1.1,4.4,0.1,5.3,2.3c1.3,3,2,6.3,2.9,9.5c0.2,0.7,0.4,1.3,0.6,2c1.4,8.3,2.9,16.7,4.3,25c-0.2,0.8-0.1,1.5,0.5,2.1
	c0.2,1.6,0.3,3.3,0.5,4.9C524.7,253.4,524.9,254.1,525.4,254.7z"/>
</svg>
